<?xml version="1.0" encoding="utf-8"?>
<!-- Generator: Adobe Illustrator 23.0.3, SVG Export Plug-In . SVG Version: 6.00 Build 0)  -->
<svg version="1.1" id="Layer_1" xmlns="http://www.w3.org/2000/svg" xmlns:xlink="http://www.w3.org/1999/xlink" x="0px" y="0px"
	 viewBox="0 0 24 24" style="enable-background:new 0 0 24 24;" xml:space="preserve">
<style type="text/css">
	.st0{fill-rule:evenodd;clip-rule:evenodd;}
</style>
<g>
	<path id="a_2_" class="st0" d="M20,6V5c0-0.5-0.4-1-1-1h-1c0,0.6-0.4,1-1,1c0,0,0,0,0,0h-1c-0.6,0-1-0.4-1-1H9c0,0.6-0.4,1-1,1
		c0,0,0,0,0,0H7C6.4,5,6,4.6,6,4H5C4.4,4,4,4.4,4,5v1H20z M20,8H4v11c0,0.5,0.4,1,1,1h14c0.5,0,1-0.4,1-1V8z M18,2h1
		c1.7,0,3,1.3,3,3v14c0,1.7-1.3,3-3,3H5c-1.7,0-3-1.3-3-3V5c0-1.7,1.3-3,3-3h1c0-0.6,0.4-1,1-1h1c0.6,0,1,0.4,1,1h6c0-0.6,0.4-1,1-1
		h1C17.6,1,18,1.4,18,2z M7,13v-2h2v2H7z M7,17v-2h2v2H7z M11,13v-2h2v2H11z M11,17v-2h2v2H11z M15,13v-2h2v2H15z"/>
</g>
</svg>
