<?xml version="1.0" encoding="utf-8"?>
<!-- Generator: Adobe Illustrator 23.0.3, SVG Export Plug-In . SVG Version: 6.00 Build 0)  -->
<svg version="1.1" id="Layer_1" xmlns="http://www.w3.org/2000/svg" xmlns:xlink="http://www.w3.org/1999/xlink" x="0px" y="0px"
	 viewBox="0 0 24 24" style="enable-background:new 0 0 24 24;" xml:space="preserve">
<style type="text/css">
	.st0{fill-rule:evenodd;clip-rule:evenodd;}
</style>
<g>
	<path id="a_1_" class="st0" d="M12,6c0.6,0,1,0.5,1,1v6c0,0.6-0.4,1-1,1c-0.6,0-1-0.5-1-1V8c-0.6,0-1-0.4-1-1c0-0.6,0.4-1,1-1H12z
		 M12,18c-4.4,0-8-3.6-8-8s3.6-8,8-8s8,3.6,8,8S16.4,18,12,18z M12,16c3.3,0,6-2.7,6-6s-2.7-6-6-6s-6,2.7-6,6S8.7,16,12,16z M6,20
		c0-0.6,0.5-1,1-1h10c0.6,0,1,0.4,1,1s-0.4,1-1,1H7C6.5,21,6,20.6,6,20C6,20,6,20,6,20z"/>
</g>
</svg>
