<?xml version="1.0" encoding="utf-8"?>
<!-- Generator: Adobe Illustrator 23.0.3, SVG Export Plug-In . SVG Version: 6.00 Build 0)  -->
<svg version="1.1" id="Layer_1" xmlns="http://www.w3.org/2000/svg" xmlns:xlink="http://www.w3.org/1999/xlink" x="0px" y="0px"
	 viewBox="0 0 26 22" style="enable-background:new 0 0 26 22;" xml:space="preserve">
<g>
	<path d="M12.9,22C12.9,22,12.9,22,12.9,22c-0.8,0-1.6-0.3-2.1-0.9l-8.6-8.8C0.7,10.9,0,9.1,0,7.2c0-1.9,0.8-3.7,2.1-5.1
		c2.8-2.8,7.4-2.8,10.2,0h0L13,2.7l0.6-0.6c2.8-2.8,7.4-2.8,10.2,0C25.3,3.5,26,5.3,26,7.2s-0.8,3.7-2.1,5.1L15,21.1
		C14.4,21.7,13.7,22,12.9,22z M7.2,2C5.9,2,4.6,2.5,3.5,3.5C2.5,4.5,2,5.8,2,7.2c0,1.4,0.5,2.7,1.5,3.7l1.4,1.4l7.3,7.5
		c0.2,0.2,0.4,0.3,0.7,0.3c0.3,0,0.5-0.1,0.7-0.3l8.9-8.8c1-1,1.5-2.3,1.5-3.7c0-1.4-0.5-2.7-1.5-3.7c-2.1-2.1-5.4-2.1-7.4,0l-2.1,2
		l-2.1-2C9.9,2.5,8.6,2,7.2,2z"/>
</g>
</svg>
