<?xml version="1.0" encoding="utf-8"?>
<!-- Generator: Adobe Illustrator 23.0.3, SVG Export Plug-In . SVG Version: 6.00 Build 0)  -->
<svg version="1.1" id="Layer_1" xmlns="http://www.w3.org/2000/svg" xmlns:xlink="http://www.w3.org/1999/xlink" x="0px" y="0px"
	 viewBox="0 0 24 24" style="enable-background:new 0 0 24 24;" xml:space="preserve">
<g>
	<path d="M4,7h9.2c0,0,0,0,0,0c0.4,1.2,1.5,2,2.8,2c1.3,0,2.4-0.9,2.8-2c0.1,0,0.1,0,0.2,0h1c0.6,0,1-0.4,1-1s-0.4-1-1-1h-1
		c-0.1,0-0.1,0-0.2,0c-0.4-1.2-1.5-2-2.8-2c-1.3,0-2.4,0.8-2.8,2c0,0,0,0,0,0H4C3.4,5,3,5.4,3,6S3.4,7,4,7z M16,5c0.6,0,1,0.4,1,1
		s-0.4,1-1,1s-1-0.4-1-1S15.4,5,16,5z"/>
	<path d="M20,17h-1c-0.1,0-0.1,0-0.2,0c-0.4-1.2-1.5-2-2.8-2c-1.3,0-2.4,0.8-2.8,2c0,0,0,0,0,0H4c-0.6,0-1,0.4-1,1s0.4,1,1,1h9.2
		c0,0,0,0,0,0c0.4,1.2,1.5,2,2.8,2c1.3,0,2.4-0.9,2.8-2c0.1,0,0.1,0,0.2,0h1c0.6,0,1-0.4,1-1S20.6,17,20,17z M16,19
		c-0.6,0-1-0.4-1-1s0.4-1,1-1s1,0.4,1,1S16.6,19,16,19z"/>
	<path d="M20,11h-8c-0.1,0-0.1,0-0.2,0C11.4,9.9,10.3,9,9,9s-2.4,0.9-2.8,2c-0.1,0-0.1,0-0.2,0H4c-0.6,0-1,0.4-1,1s0.4,1,1,1h2
		c0.1,0,0.1,0,0.2,0c0.4,1.2,1.5,2,2.8,2s2.4-0.9,2.8-2c0.1,0,0.1,0,0.2,0h8c0.6,0,1-0.4,1-1S20.6,11,20,11z M9,13c-0.6,0-1-0.4-1-1
		s0.4-1,1-1s1,0.4,1,1S9.6,13,9,13z"/>
</g>
</svg>
