<?xml version="1.0" encoding="utf-8"?>
<!-- Generator: Adobe Illustrator 23.0.3, SVG Export Plug-In . SVG Version: 6.00 Build 0)  -->
<svg version="1.1" id="Layer_1" xmlns="http://www.w3.org/2000/svg" xmlns:xlink="http://www.w3.org/1999/xlink" x="0px" y="0px"
	 viewBox="0 0 24 24" style="enable-background:new 0 0 24 24;" xml:space="preserve">
<style type="text/css">
	.st0{fill-opacity:0;}
	.st1{fill-rule:evenodd;clip-rule:evenodd;}
</style>
<path class="st0" d="M15,20h4V4H5v16h4v-4h0c-0.6,0-1-0.4-1-1c0,0,0,0,0,0c0-0.6,0.5-1,1-1h6c0.6,0,1,0.4,1,1c0,0.6-0.5,1-1,1h0V20z
	 M3,3c0-0.5,0.4-1,1-1h16c0.5,0,1,0.4,1,1v18c0,0.5-0.4,1-1,1H4c-0.5,0-1-0.4-1-1V3z M7,6h2v2H7V6z M7,10h2v2H7V10z M11,6h2v2h-2V6z
	 M11,10h2v2h-2V10z M11,16v4h2v-4H11z M15,6h2v2h-2V6z M15,10h2v2h-2V10z"/>
<g>
	<path id="a_1_" class="st1" d="M15,20h4V4H5v16h4v-4h0c-0.6,0-1-0.4-1-1c0,0,0,0,0,0c0-0.6,0.5-1,1-1h6c0.6,0,1,0.4,1,1
		c0,0.6-0.5,1-1,1h0V20z M3,3c0-0.5,0.4-1,1-1h16c0.5,0,1,0.4,1,1v18c0,0.5-0.4,1-1,1H4c-0.5,0-1-0.4-1-1V3z M7,6h2v2H7V6z M7,10h2
		v2H7V10z M11,6h2v2h-2V6z M11,10h2v2h-2V10z M11,16v4h2v-4H11z M15,6h2v2h-2V6z M15,10h2v2h-2V10z"/>
</g>
</svg>
