<?xml version="1.0" encoding="utf-8"?>
<!-- Generator: Adobe Illustrator 23.0.3, SVG Export Plug-In . SVG Version: 6.00 Build 0)  -->
<svg version="1.1" id="Layer_1" xmlns="http://www.w3.org/2000/svg" xmlns:xlink="http://www.w3.org/1999/xlink" x="0px" y="0px"
	 viewBox="0 0 24 24" style="enable-background:new 0 0 24 24;" xml:space="preserve">
<style type="text/css">
	.st0{fill-rule:evenodd;clip-rule:evenodd;}
</style>
<g>
	<path id="a_1_" class="st0" d="M12,2c2,0,4.1,0.8,5.7,2.3c1.6,1.5,2.4,3.7,2.3,5.9c0,0.8-0.2,1.7-0.6,2.5c-0.4,0.9-0.9,1.8-1.6,2.6
		l-4.6,5.2c-0.7,0.8-1.9,0.8-2.6,0l-4.6-5.2c-0.6-0.8-1.2-1.7-1.6-2.6C4.2,11.9,4,11,4,10.2C3.9,8,4.8,5.9,6.3,4.3
		C7.8,2.8,9.9,2,12,2z M12,19l4.3-4.9c0.6-0.7,1-1.4,1.3-2.1c0.2-0.6,0.4-1.2,0.4-1.8c0.1-1.6-0.6-3.2-1.7-4.4C15.1,4.6,13.6,4,12,4
		c-1.6,0-3.1,0.6-4.3,1.7C6.6,6.9,5.9,8.5,6,10.1c0,0.6,0.2,1.2,0.4,1.8c0.3,0.7,0.7,1.4,1.3,2.1L12,19z M12,13c-1.7,0-3-1.3-3-3
		s1.3-3,3-3s3,1.3,3,3S13.7,13,12,13z M12,11c0.6,0,1-0.4,1-1s-0.4-1-1-1s-1,0.4-1,1S11.4,11,12,11z"/>
</g>
</svg>
