<?xml version="1.0" encoding="utf-8"?>
<!-- Generator: Adobe Illustrator 23.0.3, SVG Export Plug-In . SVG Version: 6.00 Build 0)  -->
<svg version="1.1" id="Layer_1" xmlns="http://www.w3.org/2000/svg" xmlns:xlink="http://www.w3.org/1999/xlink" x="0px" y="0px"
	 viewBox="0 0 24 24" style="enable-background:new 0 0 24 24;" xml:space="preserve">
<style type="text/css">
	.st0{fill-rule:evenodd;clip-rule:evenodd;fill-opacity:0;}
	.st1{fill-rule:evenodd;clip-rule:evenodd;}
</style>
<path class="st0" d="M3,7c0-0.6,0.4-1,1-1h16c0.5,0,1,0.4,1,1c0,0.6-0.4,1-1,1H4C3.4,8,3,7.6,3,7C3,7,3,7,3,7z M3,12
	c0-0.6,0.4-1,1-1h16c0.5,0,1,0.4,1,1c0,0.6-0.4,1-1,1H4C3.4,13,3,12.6,3,12C3,12,3,12,3,12z M3,17c0-0.6,0.4-1,1-1h16
	c0.5,0,1,0.4,1,1c0,0.6-0.4,1-1,1H4C3.4,18,3,17.6,3,17C3,17,3,17,3,17z"/>
<g>
	<path id="a_1_" class="st1" d="M3,7c0-0.6,0.4-1,1-1h16c0.5,0,1,0.4,1,1c0,0.6-0.4,1-1,1H4C3.4,8,3,7.6,3,7C3,7,3,7,3,7z M3,12
		c0-0.6,0.4-1,1-1h16c0.5,0,1,0.4,1,1c0,0.6-0.4,1-1,1H4C3.4,13,3,12.6,3,12C3,12,3,12,3,12z M3,17c0-0.6,0.4-1,1-1h16
		c0.5,0,1,0.4,1,1c0,0.6-0.4,1-1,1H4C3.4,18,3,17.6,3,17C3,17,3,17,3,17z"/>
</g>
</svg>
