<?xml version="1.0" encoding="utf-8"?>
<!-- Generator: Adobe Illustrator 23.0.3, SVG Export Plug-In . SVG Version: 6.00 Build 0)  -->
<svg version="1.1" id="Layer_1" xmlns="http://www.w3.org/2000/svg" xmlns:xlink="http://www.w3.org/1999/xlink" x="0px" y="0px"
	 viewBox="0 0 24 24" style="enable-background:new 0 0 24 24;" xml:space="preserve">
<style type="text/css">
	.st0{fill-opacity:0;}
	.st1{fill-rule:evenodd;clip-rule:evenodd;}
</style>
<path class="st0" d="M12.2,17l2.2,0c1.2,0,2.4-0.5,3.2-1.3c0.9-0.8,1.3-2,1.3-3.2c0-1.2-0.5-2.4-1.3-3.2c-0.4-0.4-0.4-1,0-1.4
	s1-0.4,1.4,0c1.2,1.2,1.9,2.9,1.9,4.6c0,1.7-0.7,3.4-1.9,4.6c-1.2,1.2-2.9,1.9-4.6,1.9l-1.9,0l1,1c0.4,0.4,0.4,1,0,1.4
	c-0.4,0.4-1,0.4-1.4,0l-2.8-2.8c-0.4-0.4-0.4-1,0-1.4c0,0,0,0,0,0l2.8-2.8c0.4-0.4,1-0.4,1.4,0s0.4,1,0,1.4
	C13.5,15.7,12.2,17,12.2,17z M11.1,7L9.5,7C8.3,7,7.2,7.5,6.3,8.3C5.5,9.2,5,10.3,5,11.5c0,1.2,0.5,2.3,1.3,3.2c0.4,0.4,0.4,1,0,1.4
	c-0.4,0.4-1,0.4-1.4,0l0,0C3.7,14.9,3,13.3,3,11.5c0-1.7,0.7-3.4,1.9-4.6C6.1,5.7,7.8,5,9.5,5l1.9,0l-1.3-1.3c-0.4-0.4-0.4-1,0-1.4
	c0.4-0.4,1-0.4,1.4,0l2.8,2.8c0.4,0.4,0.4,1,0,1.4c0,0,0,0,0,0l-2.8,2.8c-0.4,0.4-1,0.4-1.4,0c-0.4-0.4-0.4-1,0-1.4L11.1,7L11.1,7z"
	/>
<g>
	<path id="a_1_" class="st1" d="M12.2,17l2.2,0c1.2,0,2.4-0.5,3.2-1.3c0.9-0.8,1.3-2,1.3-3.2c0-1.2-0.5-2.4-1.3-3.2
		c-0.4-0.4-0.4-1,0-1.4s1-0.4,1.4,0c1.2,1.2,1.9,2.9,1.9,4.6c0,1.7-0.7,3.4-1.9,4.6c-1.2,1.2-2.9,1.9-4.6,1.9l-1.9,0l1,1
		c0.4,0.4,0.4,1,0,1.4c-0.4,0.4-1,0.4-1.4,0l-2.8-2.8c-0.4-0.4-0.4-1,0-1.4c0,0,0,0,0,0l2.8-2.8c0.4-0.4,1-0.4,1.4,0s0.4,1,0,1.4
		C13.5,15.7,12.2,17,12.2,17z M11.1,7L9.5,7C8.3,7,7.2,7.5,6.3,8.3C5.5,9.2,5,10.3,5,11.5c0,1.2,0.5,2.3,1.3,3.2
		c0.4,0.4,0.4,1,0,1.4c-0.4,0.4-1,0.4-1.4,0l0,0C3.7,14.9,3,13.3,3,11.5c0-1.7,0.7-3.4,1.9-4.6C6.1,5.7,7.8,5,9.5,5l1.9,0l-1.3-1.3
		c-0.4-0.4-0.4-1,0-1.4c0.4-0.4,1-0.4,1.4,0l2.8,2.8c0.4,0.4,0.4,1,0,1.4c0,0,0,0,0,0l-2.8,2.8c-0.4,0.4-1,0.4-1.4,0
		c-0.4-0.4-0.4-1,0-1.4L11.1,7L11.1,7z"/>
</g>
</svg>
