<?xml version="1.0" encoding="utf-8"?>
<!-- Generator: Adobe Illustrator 23.0.3, SVG Export Plug-In . SVG Version: 6.00 Build 0)  -->
<svg version="1.1" id="Layer_1" xmlns="http://www.w3.org/2000/svg" xmlns:xlink="http://www.w3.org/1999/xlink" x="0px" y="0px"
	 viewBox="0 0 24 24" style="enable-background:new 0 0 24 24;" xml:space="preserve">
<path d="M20.7,19l-1-1l-3.1-3.1c0.9-1.2,1.5-2.8,1.5-4.4C18,6.4,14.6,3,10.5,3S3,6.4,3,10.5S6.4,18,10.5,18c1.7,0,3.2-0.5,4.4-1.5
	l1.9,1.9l2.2,2.2c0,0,0,0,0,0c0.5,0.4,1.2,0.4,1.6,0C21.1,20.2,21.1,19.5,20.7,19z M5,10.5C5,7.5,7.5,5,10.5,5S16,7.5,16,10.5
	S13.5,16,10.5,16S5,13.5,5,10.5z"/>
</svg>
