<?xml version="1.0" encoding="utf-8"?>
<!-- Generator: Adobe Illustrator 23.0.3, SVG Export Plug-In . SVG Version: 6.00 Build 0)  -->
<svg version="1.1" id="Layer_1" xmlns="http://www.w3.org/2000/svg" xmlns:xlink="http://www.w3.org/1999/xlink" x="0px" y="0px"
	 viewBox="0 0 24 24" style="enable-background:new 0 0 24 24;" xml:space="preserve">
<style type="text/css">
	.st0{fill-opacity:0;}
	.st1{fill-rule:evenodd;clip-rule:evenodd;}
</style>
<path class="st0" d="M8,21.4c-1,0.7-2,0.9-2.7,0.3c-0.7-0.6-0.8-1.5-0.5-2.7l1.4-4.5l-3.9-2.9c-1-0.7-1.5-1.5-1.2-2.4
	C1.4,8.4,2.2,8,3.4,8l5-0.1L10,3.5c0.2-0.7,0.6-1.2,1-1.5c0.6-0.5,1.3-0.5,2,0c0.5,0.3,0.8,0.9,1,1.6l1.6,4.4l5,0.1
	c1.2,0,2.1,0.3,2.4,1.2c0.3,0.9-0.2,1.7-1.2,2.4l-3.9,2.9l1.4,4.5c0.4,1.2,0.3,2.1-0.5,2.7c-0.8,0.6-1.7,0.4-2.7-0.3l-4-2.7L8,21.4z
	"/>
<g>
	<path id="a_1_" class="st1" d="M8,21.4c-1,0.7-2,0.9-2.7,0.3c-0.7-0.6-0.8-1.5-0.5-2.7l1.4-4.5l-3.9-2.9c-1-0.7-1.5-1.5-1.2-2.4
		C1.4,8.4,2.2,8,3.4,8l5-0.1L10,3.5c0.2-0.7,0.6-1.2,1-1.5c0.6-0.5,1.3-0.5,2,0c0.5,0.3,0.8,0.9,1,1.6l1.6,4.4l5,0.1
		c1.2,0,2.1,0.3,2.4,1.2c0.3,0.9-0.2,1.7-1.2,2.4l-3.9,2.9l1.4,4.5c0.4,1.2,0.3,2.1-0.5,2.7c-0.8,0.6-1.7,0.4-2.7-0.3l-4-2.7L8,21.4
		z"/>
</g>
</svg>
