<svg xmlns="http://www.w3.org/2000/svg" width="99" height="37" viewBox="0 0 146 53">
    <path fill="#EF3A5D" fill-rule="evenodd" d="M101.561 30.658c-1.526.193-2.796.991-3.458 2.559v-1.591c0-.47-.262-.73-.73-.73h-2.506c-.468 0-.73.26-.73.73v13.91c0 .468.262.729.73.729h2.506c.468 0 .73-.26.73-.729v-6.848c0-2.743 1.782-3.727 3.65-3.719.36 0 .56-.246.56-.708v-2.904c0-.47-.261-.777-.752-.7zm-33.236-.178h-.016c-2.359 0-3.91.788-4.62 1.995v-5.78c0-.47-.262-.73-.73-.73h-2.506c-.468 0-.73.26-.73.73v18.841c0 .468.262.729.73.729h2.506c.468 0 .73-.26.73-.729v-6.535c0-2.782 1.136-4.962 3.517-4.962 1.923 0 3.214 1.184 3.214 3.229v8.268c0 .468.26.729.73.729h2.505c.47 0 .73-.26.73-.729v-9.092c0-3.766-2.995-5.964-6.06-5.964zM44.392 42.545c-2.49 0-4.303-1.752-4.303-4.194 0-2.445 1.813-4.197 4.303-4.197s4.305 1.752 4.305 4.197c0 2.442-1.815 4.194-4.305 4.194zm7.447-11.65h-2.414c-.468 0-.728.261-.728.73V32.8c-1.097-1.432-2.772-2.32-5.081-2.32-4.104 0-7.493 3.528-7.493 7.87 0 4.342 3.39 7.869 7.493 7.869 2.309 0 3.984-.887 5.08-2.32v1.637c0 2.42-1.507 3.757-3.98 3.757-2.014 0-3.244-.89-3.597-1.959-.139-.415-.346-.646-.784-.646h-2.529c-.468 0-.76.262-.73.76.454 3.498 3.928 5.38 7.64 5.38 3.841 0 7.853-2.252 7.853-7.292v-13.91c0-.47-.26-.73-.73-.73zm71.708-9.266c-.85 1.21-2.205 2.02-3.52 2.64-.85.401-1.739.748-2.646 1.006a.171.171 0 0 1-.167-.045 17.351 17.351 0 0 1-1.624-1.959c-1.242-1.725-2.766-4.43-1.365-6.485.673-.986 1.794-1.622 3.002-1.372 1.04.217 1.835 1.025 2.168 2.008.77-.677 1.848-.98 2.85-.665 1.202.38 1.836 1.496 1.945 2.7.053.783-.194 1.534-.643 2.172zm19.543-6.494c-1.545.047-2.736 1.395-2.736 2.94v1.87a2.894 2.894 0 0 1-2.893 2.894h-1.269a2.893 2.893 0 0 1-2.892-2.893v-4.232h-.006c0-2.895-1.21-5.758-3.087-7.763-.078-.083.008-.213.115-.174l2.732 1.01a.49.49 0 0 0 .63-.29l.9-2.438a1.804 1.804 0 0 0-1.066-2.318l-1.58-.584a1.804 1.804 0 0 0-2.318 1.067l-.758 2.05a.279.279 0 0 1-.415.134 6.506 6.506 0 0 0-2.63-.96.28.28 0 0 1-.231-.37l.762-2.064a1.806 1.806 0 0 0-1.067-2.318l-1.58-.584a1.806 1.806 0 0 0-2.318 1.067l-.9 2.438a.49.49 0 0 0 .288.63l2.908 1.074c.1.038.092.184-.013.207a6.203 6.203 0 0 0-1.424.485c-1.187.571-2.04 1.518-2.88 2.493-.895 1.039-8.909 10.3-9.034 10.484-.487.703-.034 1.43.3 2.087.341.671.708 1.337 1.156 1.945 1.883 2.547 4.803 4.253 7.927 4.703a12.04 12.04 0 0 0 7.504-1.387c.187-.103.4.026.4.24v7.646a2.824 2.824 0 0 0 3.214 2.797c1.437-.192 2.471-1.488 2.471-2.938v-3.021a2.893 2.893 0 0 1 2.892-2.893h1.27a2.894 2.894 0 0 1 2.892 2.893v3.043c0 1.547 1.19 2.895 2.736 2.94a2.822 2.822 0 0 0 2.91-2.82V17.957c0-1.588-1.31-2.87-2.91-2.823zm-32.376 27.688c-2.352 0-4.165-1.752-4.165-4.242s1.813-4.243 4.165-4.243c2.352 0 4.166 1.753 4.166 4.243s-1.814 4.242-4.166 4.242zm0-12.343c-4.511 0-8.131 3.528-8.131 8.1 0 4.573 3.62 8.1 8.131 8.1s8.131-3.527 8.131-8.1c0-4.572-3.62-8.1-8.131-8.1zm-30.34 6.617c.472-1.925 1.91-3.058 4.013-3.058 1.664 0 3.28.862 3.739 3.058h-7.752zm4.036-6.617c-4.833 0-8.145 3.536-8.145 8.1 0 4.596 3.234 8.1 8.239 8.1 3.134 0 5.655-1.445 6.816-4.035.222-.46-.07-.798-.6-.798l-2.46.022c-.384 0-.622.154-.898.408-.608.661-1.644 1.122-2.806 1.122-1.967 0-3.626-.997-4.165-3.182h10.867c.438 0 .73-.206.784-.676.022-.308.046-.614.046-.946 0-4.533-3.136-8.115-7.678-8.115zM26.456 42.823c-2.351 0-4.165-1.752-4.165-4.242s1.814-4.243 4.165-4.243c2.352 0 4.166 1.753 4.166 4.243s-1.814 4.242-4.166 4.242zm0-12.343c-4.511 0-8.13 3.528-8.13 8.1 0 4.573 3.619 8.1 8.13 8.1 4.512 0 8.131-3.527 8.131-8.1 0-4.572-3.62-8.1-8.13-8.1zM8.223 42.915c-2.444 0-4.256-1.752-4.256-4.334 0-2.583 1.812-4.335 4.256-4.335s4.258 1.752 4.258 4.335c0 2.582-1.814 4.334-4.258 4.334zm7.493-16.95h-2.505c-.469 0-.73.26-.73.73v6.016c-1.096-1.392-2.742-2.23-4.988-2.23C3.39 30.48 0 34.007 0 38.58c0 4.572 3.39 8.1 7.493 8.1 2.246 0 3.892-.84 4.988-2.23v1.085c0 .468.261.729.73.729h2.505c.469 0 .73-.26.73-.729V26.694c0-.47-.261-.73-.73-.73z"/>
</svg>
