<?xml version="1.0" encoding="utf-8"?>
<!-- Generator: Adobe Illustrator 23.0.3, SVG Export Plug-In . SVG Version: 6.00 Build 0)  -->
<svg version="1.1" id="Layer_1" xmlns="http://www.w3.org/2000/svg" xmlns:xlink="http://www.w3.org/1999/xlink" x="0px" y="0px"
	 viewBox="0 0 24 24" style="enable-background:new 0 0 24 24;" xml:space="preserve">
<style type="text/css">
	.st0{fill-rule:evenodd;clip-rule:evenodd;fill:#FFCC46;}
	.st1{fill-rule:evenodd;clip-rule:evenodd;fill:#66CAD8;}
	.st2{fill-rule:evenodd;clip-rule:evenodd;fill:#E3F5F7;}
</style>
<g>
	<path class="st0" d="M16,16c0-1.7,1.3-3,3-3c1.7,0,3,1.3,3,3c0,1-0.5,1.9-1.3,2.5c1.4,0.9,1.8,2.8,0.8,4.2
		c-0.9,1.4-2.8,1.8-4.2,0.8C16.5,22.9,16,22,16,21H8c0,1.7-1.3,3-3,3s-3-1.3-3-3c0-1,0.5-1.9,1.3-2.5c-1.4-0.9-1.8-2.8-0.8-4.2
		s2.8-1.8,4.2-0.8C7.5,14.1,8,15,8,16H16z"/>
	<path class="st1" d="M9,0v12.6L5.8,10C5.3,9.6,5,8.9,5,8.4V2c0-1.1,0.9-2,2-2H9z M15,0h2c1.1,0,2,0.9,2,2v6.3
		c0,0.6-0.3,1.3-0.8,1.6L15,12.6V0z"/>
	<path class="st2" d="M15,0v12.6l-1.4,1.2c-0.9,0.7-2.3,0.7-3.1,0L9,12.6V0H15z"/>
</g>
</svg>
